PathFileType	4	(X/Y/Z)	 s10c0001.trc
DataRate	CameraRate	NumFrames	NumMarkers	Units	OrigDataRate	OrigDataStartFrame	OrigNumFrames
200	200	4	49	mm	200	1751	2000
Frame#	Time	racr			lacr			c7			jug			rlel			rdr			llel			ldr			s2			lic			ric			lasi			rasi			rpsi			lpsi			rgt			lgt			rth1			rth2			rth3			rth4			rlfc			rmfc			rsh1			rsh2			rsh3			rsh4			rlmal			rmmal			rcal			rtoe			rmt5			rmt1			lth1			lth2			lth4			lth3			llfc			lmfc			llmal			lmmal			lcal			lmt1			lmt5			lsh1			lsh2			lsh3			lsh4			ltoe			
		X1	Y1	Z1	X2	Y2	Z2	X3	Y3	Z3	X4	Y4	Z4	X5	Y5	Z5	X6	Y6	Z6	X7	Y7	Z7	X8	Y8	Z8	X9	Y9	Z9	X10	Y10	Z10	X11	Y11	Z11	X12	Y12	Z12	X13	Y13	Z13	X14	Y14	Z14	X15	Y15	Z15	X16	Y16	Z16	X17	Y17	Z17	X18	Y18	Z18	X19	Y19	Z19	X20	Y20	Z20	X21	Y21	Z21	X22	Y22	Z22	X23	Y23	Z23	X24	Y24	Z24	X25	Y25	Z25	X26	Y26	Z26	X27	Y27	Z27	X28	Y28	Z28	X29	Y29	Z29	X30	Y30	Z30	X31	Y31	Z31	X32	Y32	Z32	X33	Y33	Z33	X34	Y34	Z34	X35	Y35	Z35	X36	Y36	Z36	X37	Y37	Z37	X38	Y38	Z38	X39	Y39	Z39	X40	Y40	Z40	X41	Y41	Z41	X42	Y42	Z42	X43	Y43	Z43	X44	Y44	Z44	X45	Y45	Z45	X46	Y46	Z46	X47	Y47	Z47	X48	Y48	Z48	X49	Y49	Z49	
1751	8.7550	456.089922	1379.273378	682.737914	482.299402	1387.386302	304.859146	426.665520	1426.815276	483.750637	559.635173	1377.479464	503.062112	446.575658	1124.334382	817.105676	469.064890	913.949053	933.208208	486.508605	1110.108973	192.846960	544.820177	908.863346	88.378330	384.890387	931.632553	495.094506	535.152343	994.399166	351.740365	534.998926	1002.382396	649.083541	597.098878	918.964983	384.805051	577.894640	908.274268	639.165956	402.667756	972.447065	557.857276	404.008781	983.936266	443.891958	460.846531	854.008446	683.773632	471.950362	854.542979	308.116486	480.860892	729.375071	715.099182	504.652246	643.914984	701.040422	482.186216	561.626305	692.059337	540.801595	646.533887	692.535429	492.258024	459.350141	675.197349	480.448907	441.110838	562.574962	446.615309	359.915724	717.025118	468.018872	273.157265	714.773857	443.740925	190.446914	716.695642	499.708524	274.393329	691.720992	454.129912	84.987919	710.010533	483.519950	95.896421	630.145303	420.307471	50.462410	655.014482	652.025441	85.094534	711.335756	566.244412	42.211099	755.908932	609.721458	46.713649	658.366950	494.355132	746.226712	282.872004	517.051165	663.836875	295.376015	550.650017	666.495374	305.625010	495.263507	577.960358	301.335538	496.239280	472.708828	315.245102	490.857959	454.674617	425.494983	450.918101	103.772539	283.900316	469.912443	101.055154	362.317366	411.060327	58.724377	327.027273	612.166283	47.431899	347.363540	579.625910	46.138683	245.217517	447.018571	364.293474	269.691457	473.105841	281.437605	275.771981	452.423899	194.203334	273.295241	501.846181	283.014294	301.723513	653.368945	92.432126	295.319039	
1752	8.7600	456.117237	1379.291786	682.755990	482.347824	1387.382688	304.874784	426.660473	1426.803608	483.850771	559.632925	1377.493345	503.061529	446.584526	1124.310971	817.101495	469.057524	913.954150	933.213601	486.556037	1110.116165	192.871888	544.854433	908.868561	88.386305	384.870680	931.672276	495.184271	535.143416	994.413316	351.719657	535.015336	1002.399124	649.107822	597.111743	918.959681	384.811229	577.904794	908.271270	639.177820	402.741518	972.412200	557.868552	404.025528	983.925261	443.913316	460.876324	854.019356	683.798365	471.961030	854.542094	308.140026	480.833650	729.322986	715.114624	504.679901	643.924362	701.078208	482.222159	561.624135	692.078544	540.848731	646.539607	692.589605	492.285422	459.393550	675.233452	480.461361	441.110303	562.570860	446.648707	359.924832	717.050839	468.022713	273.153372	714.787735	443.710171	190.443569	716.690265	499.704062	274.392903	691.735056	454.164873	84.974407	710.038121	483.514816	95.882377	630.152879	420.397383	50.400595	655.056669	652.053903	85.080296	711.337515	566.264458	42.212426	755.924907	609.727060	46.734890	658.389051	494.355460	746.248657	282.864941	517.061763	663.831210	295.405237	550.690226	666.481471	305.667050	495.155498	577.950065	301.259322	496.229605	472.710640	315.221826	490.886669	454.679030	425.513822	450.930890	103.783142	283.936351	469.922939	101.058373	362.356404	411.077294	58.732312	327.046120	612.166065	47.453186	347.387353	579.624834	46.143575	245.210565	447.028476	364.304175	269.688306	473.159236	281.463127	275.772437	452.432361	194.212754	273.285061	501.852237	283.020598	301.724828	653.403962	92.427179	295.341667	
1753	8.7650	456.121240	1379.308135	682.764897	482.350709	1387.392111	304.882692	426.694110	1426.754468	483.792723	559.645069	1377.490993	503.070817	446.586057	1124.336383	817.115405	469.073205	913.969342	933.217773	486.561010	1110.117101	192.877856	544.896002	908.888184	88.396032	384.865641	931.622734	495.144788	535.147270	994.408416	351.705139	535.025802	1002.399085	649.096538	597.086164	918.962601	384.797753	577.899503	908.270444	639.193918	402.741519	972.412202	557.868552	404.025119	983.905808	443.909529	460.865890	854.009917	683.790088	471.956952	854.541711	308.146221	480.812364	729.325515	715.109398	504.685044	643.922025	701.081040	482.223010	561.616408	692.076433	540.828224	646.531740	692.576625	492.296766	459.359173	675.222887	480.495573	441.121774	562.568165	446.658677	359.907708	717.037786	468.006791	273.141090	714.775837	443.727903	190.449285	716.700191	499.705116	274.397497	691.728822	454.162709	84.983639	710.041883	483.521715	95.892469	630.142940	420.361754	50.445475	655.039358	652.029350	85.070138	711.351200	566.239317	42.214836	755.928347	609.721176	46.730833	658.385303	494.363634	746.244622	282.886568	517.058387	663.836687	295.374046	550.687678	666.482773	305.658202	495.265328	577.963860	301.333335	496.218283	472.714168	315.247873	490.878361	454.686659	425.510296	450.922379	103.782746	283.945297	469.906682	101.034182	362.364442	411.061231	58.722967	327.043215	612.168014	47.452786	347.386967	579.625619	46.137989	245.217351	447.029176	364.309227	269.685548	473.169356	281.468954	275.778889	452.421756	194.211262	273.295918	501.877506	283.025395	301.732230	653.384081	92.415967	295.351349	
1754	8.7700	456.118927	1379.301418	682.756921	482.354716	1387.398308	304.883450	426.657003	1426.803930	483.826756	559.650947	1377.494617	503.053164	446.596747	1124.331760	817.098208	469.054419	913.973615	933.226822	486.559014	1110.134802	192.871787	544.895724	908.895028	88.372105	384.837874	931.669648	495.167894	535.130812	994.410085	351.701133	534.934104	1002.364749	649.084495	597.097588	918.965719	384.774172	577.880098	908.280370	639.150019	402.627111	972.440332	557.860908	403.993565	983.908743	443.894525	460.831772	854.003600	683.773198	471.951299	854.557665	308.128223	480.781332	729.310646	715.091738	504.643248	643.911043	701.052621	482.207640	561.615915	692.059065	540.801717	646.508513	692.555342	492.273409	459.365104	675.209881	480.544971	441.143333	562.566802	446.625240	359.911406	717.023451	468.016411	273.163800	714.778482	443.710854	190.466250	716.681562	499.694685	274.287051	691.629709	454.119182	84.968024	710.024030	483.499613	95.883990	630.145411	420.318053	50.452641	655.037719	652.010534	85.063806	711.334235	566.161446	42.146773	755.935768	609.722592	46.731486	658.398906	494.372819	746.236592	282.855216	517.063605	663.850972	295.406471	550.690139	666.480265	305.666672	495.261317	577.967617	301.329225	496.230488	472.712239	315.221146	490.863348	454.662079	425.485307	450.911959	103.762140	283.928584	469.867701	101.038733	362.337788	411.044210	58.710943	327.044234	612.146463	47.420642	347.357231	579.625737	46.146894	245.200815	447.009301	364.305189	269.692452	473.164447	281.462357	275.764337	452.414172	194.204053	273.276817	501.847816	283.016234	301.724061	653.384266	92.402028	295.317844	
